<svg version="1.2" xmlns="http://www.w3.org/2000/svg" viewBox="0 0 58 58" width="35" height="35">
	<path fill="white" d="m33.2 10.5h-19.4c-7.6 0-13.8 6.2-13.8 13.8v11.3c0 7.6 6.4 13.9 14 13.9v7.4c0 0.5 0.4 0.8 0.7 0.4l1.6-1.5c4.1-4.1 9.7-6.3 15.5-6.3h1.4c7.6 0 13.8-6.3 13.8-13.9v-11.3c0-7.6-6.2-13.8-13.8-13.8z"/>
	<path fill="#741b1b" d="m44.2 0.5h-19.4c-6.4 0-11.7 4.3-13.3 10.2q1.1-0.2 2.3-0.2h19.4c7.6 0 13.8 6.2 13.8 13.8v11.3q0 1.9-0.5 3.7c6.5-1.2 11.5-6.9 11.5-13.7v-11.3c0-7.6-6.2-13.8-13.8-13.8z"/>
	<path fill="currentcolor" class="dot" d="m12 33.5c-1.7 0-3-1.3-3-3 0-1.7 1.3-3 3-3 1.7 0 3 1.3 3 3 0 1.7-1.3 3-3 3z"/>
	<path fill="currentcolor" class="dot" d="m24 33.5c-1.7 0-3-1.3-3-3 0-1.7 1.3-3 3-3 1.7 0 3 1.3 3 3 0 1.7-1.3 3-3 3z"/>
	<path fill="currentcolor" class="dot" d="m36 33.5c-1.7 0-3-1.3-3-3 0-1.7 1.3-3 3-3 1.7 0 3 1.3 3 3 0 1.7-1.3 3-3 3z"/>
</svg>